<svg width="36" height="37" viewBox="0 0 36 37" fill="none" xmlns="http://www.w3.org/2000/svg">
<path d="M0.0639648 18.6785C0.0639648 8.89537 7.99473 0.9646 17.7778 0.9646C27.5609 0.9646 35.4917 8.89537 35.4917 18.6785C35.4917 28.4616 27.5609 36.3923 17.7778 36.3923C7.99473 36.3923 0.0639648 28.4616 0.0639648 18.6785Z" fill="#6DB1BF"/>
<g clip-path="url(#clip0_66_764)">
<path d="M17.3888 7.73257C17.2029 7.73563 17.0257 7.81174 16.8956 7.94445C16.7654 8.07716 16.6927 8.25579 16.6933 8.44168V21.9205C16.693 22.0137 16.7112 22.1061 16.7467 22.1922C16.7823 22.2784 16.8345 22.3566 16.9004 22.4225C16.9663 22.4884 17.0446 22.5407 17.1307 22.5762C17.2168 22.6117 17.3092 22.6299 17.4024 22.6297C17.4956 22.6299 17.5879 22.6117 17.674 22.5762C17.7602 22.5407 17.8385 22.4884 17.9044 22.4225C17.9702 22.3566 18.0225 22.2784 18.058 22.1922C18.0936 22.1061 18.1117 22.0137 18.1115 21.9205V8.44168C18.1118 8.34741 18.0932 8.25404 18.0569 8.16706C18.0205 8.08008 17.9672 8.00123 17.8999 7.93517C17.8327 7.8691 17.7529 7.81714 17.6653 7.78235C17.5777 7.74756 17.483 7.73063 17.3888 7.73257ZM28.1184 11.7702C28.0257 11.772 27.9344 11.7928 27.8501 11.8313L21.7645 14.5476C21.64 14.6038 21.5344 14.6948 21.4603 14.8096C21.3862 14.9243 21.3468 15.0581 21.3468 15.1947C21.3468 15.3313 21.3862 15.465 21.4603 15.5798C21.5344 15.6946 21.64 15.7855 21.7645 15.8418L27.8501 18.5678C27.9412 18.6097 28.0404 18.6309 28.1407 18.6298C28.3028 18.6293 28.4599 18.5732 28.5857 18.471C28.7115 18.3687 28.7985 18.2264 28.8321 18.0678C28.8658 17.9092 28.8441 17.7439 28.7706 17.5994C28.6971 17.4548 28.5764 17.3399 28.4284 17.2736L23.7921 15.1956L28.4284 13.1255C28.5996 13.0484 28.7333 12.9068 28.8005 12.7314C28.8676 12.5561 28.8627 12.3614 28.7868 12.1897C28.7297 12.0613 28.6356 11.9528 28.5166 11.8781C28.3975 11.8033 28.2589 11.7658 28.1184 11.7702ZM6.32207 16.6449C6.21277 16.6429 6.10449 16.6662 6.00569 16.713C5.90689 16.7598 5.82025 16.8288 5.75253 16.9146C5.68481 17.0004 5.63785 17.1007 5.61532 17.2077C5.59279 17.3147 5.5953 17.4254 5.62264 17.5312C7.30436 23.9994 13.1545 28.5176 19.8465 28.5176C20.0345 28.5176 20.2149 28.4429 20.3479 28.3099C20.4809 28.1769 20.5556 27.9965 20.5556 27.8085C20.5556 27.6204 20.4809 27.44 20.3479 27.3071C20.2149 27.1741 20.0345 27.0994 19.8465 27.0994C16.9081 27.1005 14.0524 26.127 11.7266 24.3312C9.4009 22.5354 7.73656 20.0188 6.99436 17.1757C6.95563 17.0261 6.86892 16.8932 6.7475 16.7975C6.62608 16.7018 6.47664 16.6476 6.32207 16.6449Z" fill="#223843"/>
</g>
<defs>
<clipPath id="clip0_66_764">
<rect width="23.2495" height="23.2495" fill="white" transform="translate(5.59961 6.50024)"/>
</clipPath>
</defs>
</svg>
