<svg viewBox="0 0 13 13" fill="none" xmlns="http://www.w3.org/2000/svg">
    <path d="M0.75 6.5H11.25C11.3163 6.5 11.3799 6.47366 11.4268 6.42678C11.4737 6.37989 11.5 6.3163 11.5 6.25V4.5C11.5001 4.43432 11.4872 4.36927 11.4621 4.30858C11.437 4.24788 11.4002 4.19272 11.3538 4.14625L7.85375 0.64625C7.80728 0.599833 7.75212 0.563026 7.69143 0.537932C7.63073 0.512838 7.56568 0.499949 7.5 0.5H1.5C1.23478 0.5 0.98043 0.605357 0.792893 0.792893C0.605357 0.98043 0.5 1.23478 0.5 1.5V6.25C0.5 6.3163 0.526339 6.37989 0.573223 6.42678C0.620107 6.47366 0.683696 6.5 0.75 6.5ZM7.5 1.75L10.25 4.5H7.5V1.75ZM12.25 12.0331C12.2388 12.1616 12.1795 12.2812 12.0838 12.3678C11.9882 12.4544 11.8634 12.5016 11.7344 12.5H10C9.86739 12.5 9.74021 12.4473 9.64645 12.3536C9.55268 12.2598 9.5 12.1326 9.5 12V8.51688C9.49841 8.38788 9.54564 8.26305 9.63223 8.16743C9.71882 8.0718 9.83836 8.01244 9.96688 8.00125C10.0353 7.99671 10.1039 8.00628 10.1684 8.02936C10.2329 8.05245 10.292 8.08856 10.342 8.13545C10.392 8.18234 10.4319 8.23901 10.459 8.30194C10.4862 8.36486 10.5002 8.43271 10.5 8.50125V11.5013H11.75C11.8184 11.5011 11.8862 11.515 11.949 11.5421C12.0118 11.5692 12.0684 11.6089 12.1153 11.6588C12.1622 11.7086 12.1983 11.7676 12.2215 11.832C12.2447 11.8964 12.2544 11.9648 12.25 12.0331ZM3.73875 11.2694C3.71926 11.4606 3.65765 11.6452 3.55833 11.8097C3.45902 11.9743 3.32448 12.1149 3.16437 12.2212C2.84 12.4375 2.4375 12.5 2.07125 12.5C1.75183 12.4983 1.4339 12.4563 1.125 12.375C0.998801 12.338 0.892243 12.2528 0.828405 12.1379C0.764568 12.0229 0.748591 11.8874 0.783934 11.7608C0.819278 11.6341 0.903097 11.5265 1.01724 11.4612C1.13138 11.3959 1.26665 11.3782 1.39375 11.4119C1.6675 11.4869 2.32812 11.5806 2.61562 11.3894C2.67125 11.3525 2.73 11.2944 2.74937 11.1438C2.77125 10.9769 2.705 10.8875 1.95062 10.6694C1.36625 10.5006 0.388125 10.2175 0.513125 9.225C0.53258 9.03752 0.59306 8.85662 0.690273 8.69514C0.787486 8.53366 0.919048 8.39555 1.07562 8.29062C1.81562 7.79062 2.99563 8.08375 3.1275 8.11812C3.19103 8.13487 3.25063 8.16396 3.30292 8.20374C3.3552 8.24352 3.39914 8.29321 3.43222 8.34997C3.4653 8.40673 3.48688 8.46945 3.49572 8.53455C3.50456 8.59965 3.50049 8.66585 3.48375 8.72937C3.46701 8.7929 3.43791 8.85251 3.39813 8.90479C3.35835 8.95708 3.30867 9.00101 3.25191 9.03409C3.19515 9.06717 3.13243 9.08875 3.06733 9.09759C3.00223 9.10644 2.93603 9.10237 2.8725 9.08562C2.59187 9.0125 1.92125 8.92562 1.63375 9.12062C1.59606 9.14605 1.56504 9.18016 1.54328 9.22007C1.52153 9.25999 1.50969 9.30455 1.50875 9.35C1.50125 9.40625 1.5 9.4175 1.57875 9.46875C1.72312 9.56188 1.98125 9.63625 2.23187 9.70875C2.84375 9.88562 3.87875 10.1875 3.73875 11.2694ZM8.17625 11.4712C8.38949 11.0996 8.50115 10.6784 8.5 10.25C8.5 9.00937 7.60312 8 6.5 8C5.39688 8 4.5 9.00937 4.5 10.25C4.5 11.4906 5.39688 12.5 6.5 12.5C6.85318 12.4987 7.19839 12.3949 7.49375 12.2013L7.64625 12.3538C7.69486 12.4023 7.75296 12.4404 7.81693 12.4655C7.8809 12.4906 7.94936 12.5023 8.01804 12.4998C8.08672 12.4972 8.15414 12.4806 8.2161 12.4508C8.27805 12.4211 8.33321 12.3789 8.37813 12.3269C8.46016 12.2277 8.5018 12.1013 8.49473 11.9728C8.48766 11.8444 8.43241 11.7233 8.34 11.6337L8.17625 11.4712ZM6.5 11.5C5.94875 11.5 5.5 10.9375 5.5 10.25C5.5 9.5625 5.94875 9 6.5 9C7.05125 9 7.5 9.5625 7.5 10.25C7.50009 10.4094 7.47521 10.5677 7.42625 10.7194L7.36812 10.6613C7.27584 10.5662 7.15039 10.5104 7.01796 10.5056C6.88554 10.5009 6.75639 10.5474 6.6575 10.6356C6.60866 10.6815 6.56953 10.7367 6.54244 10.798C6.51535 10.8592 6.50085 10.9253 6.49981 10.9923C6.49876 11.0593 6.51118 11.1258 6.53634 11.1879C6.56149 11.25 6.59887 11.3064 6.64625 11.3538L6.75125 11.4581C6.67022 11.4852 6.58543 11.4993 6.5 11.5Z" fill="#223843"/>
</svg>