<svg width="36" height="36" viewBox="0 0 36 36" fill="none" xmlns="http://www.w3.org/2000/svg">
<path d="M0 18.0718C0 8.28868 7.93077 0.35791 17.7139 0.35791C27.497 0.35791 35.4277 8.28868 35.4277 18.0718C35.4277 27.8549 27.497 35.7856 17.7139 35.7856C7.93077 35.7856 0 27.8549 0 18.0718Z" fill="#6DB1BF"/>
<path d="M13.0481 19.6243L16.5831 23.1603L15.1701 24.5743L16.5851 25.9893L15.1711 27.4033L12.6961 24.9283L9.86713 27.7573L8.45312 26.3433L11.2821 23.5133L8.80712 21.0393L10.2211 19.6253L11.6351 21.0383L13.0481 19.6243ZM9.00012 9.21826L12.5461 9.22126L24.3631 21.0393L25.7781 19.6253L27.1931 21.0393L24.7181 23.5143L27.5461 26.3433L26.1321 27.7573L23.3031 24.9283L20.8291 27.4033L19.4141 25.9893L20.8281 24.5743L9.00213 12.7493L9.00012 9.21826ZM23.4571 9.21826L27.0001 9.22126L27.0021 12.7443L22.9491 16.7963L19.4131 13.2613L23.4571 9.21826Z" fill="#223843"/>
</svg>
