<svg width="35" height="37" viewBox="0 0 35 37" fill="none" xmlns="http://www.w3.org/2000/svg">
<path d="M17.5316 0.920654C7.88574 0.920654 0.0639648 9.10158 0.0639648 19.1941C0.0639648 27.2679 5.06896 34.1176 12.0094 36.5339C12.8824 36.7031 13.2028 36.1375 13.2028 35.6549C13.2028 35.2191 13.1867 33.7796 13.1791 32.2527C8.31963 33.3581 7.29421 30.0966 7.29421 30.0966C6.49963 27.9844 5.35475 27.4228 5.35475 27.4228C3.76992 26.2886 5.47421 26.3119 5.47421 26.3119C7.22826 26.4406 8.15186 28.1951 8.15186 28.1951C9.70979 30.9887 12.2382 30.1811 13.235 29.7141C13.3917 28.5334 13.8444 27.7266 14.344 27.2706C10.4642 26.8085 6.38566 25.2416 6.38566 18.2396C6.38566 16.2446 7.06801 14.6144 8.18541 13.3347C8.00405 12.8742 7.40616 11.0159 8.35463 8.49879C8.35463 8.49879 9.82144 8.00767 13.1595 10.3719C14.5528 9.96703 16.0471 9.76398 17.5316 9.75702C19.016 9.76398 20.5115 9.96703 21.9074 10.3719C25.2414 8.00767 26.7062 8.49879 26.7062 8.49879C27.657 11.0159 27.0588 12.8742 26.8774 13.3347C27.9974 14.6144 28.6752 16.2446 28.6752 18.2396C28.6752 25.2583 24.5888 26.8037 20.6992 27.2561C21.3257 27.8232 21.884 28.9352 21.884 30.6401C21.884 33.0848 21.8638 35.0527 21.8638 35.6549C21.8638 36.1412 22.1782 36.711 23.0636 36.5315C30.0002 34.1125 34.9989 27.2651 34.9989 19.1941C34.9989 9.10158 27.1783 0.920654 17.5316 0.920654" fill="#6DB1BF"/>
<path d="M6.67972 27.1575C6.64125 27.2485 6.50472 27.2755 6.38034 27.2131C6.25364 27.1535 6.18249 27.0298 6.22356 26.9387C6.26117 26.8452 6.39798 26.8195 6.52439 26.8815C6.65137 26.9414 6.72369 27.0664 6.67972 27.1575" fill="#6DB1BF"/>
<path d="M7.38747 27.983C7.30417 28.0638 7.14131 28.0263 7.03082 27.8986C6.91656 27.7712 6.89516 27.6008 6.97962 27.5188C7.06553 27.438 7.22346 27.4758 7.33801 27.6032C7.45226 27.7322 7.47454 27.9013 7.38747 27.983" fill="#6DB1BF"/>
<path d="M8.07615 29.0355C7.96912 29.1132 7.79412 29.0403 7.68594 28.8778C7.57891 28.7153 7.57891 28.5204 7.68825 28.4424C7.79672 28.3643 7.96912 28.4345 8.07875 28.5958C8.18548 28.7607 8.18548 28.9559 8.07615 29.0355" fill="#6DB1BF"/>
<path d="M9.01972 30.0521C8.92398 30.1625 8.72005 30.1329 8.57079 29.9822C8.41807 29.8348 8.37555 29.6257 8.47158 29.5153C8.56848 29.4045 8.77356 29.4357 8.92398 29.5852C9.07555 29.7322 9.12183 29.9429 9.01972 30.0521" fill="#6DB1BF"/>
<path d="M10.3215 30.6425C10.2793 30.7857 10.0829 30.8507 9.885 30.7899C9.68744 30.7273 9.55814 30.5596 9.59806 30.415C9.63913 30.2709 9.8364 30.2031 10.0357 30.2682C10.233 30.3305 10.3626 30.497 10.3215 30.6425" fill="#6DB1BF"/>
<path d="M11.7506 30.7521C11.7555 30.9028 11.5878 31.0277 11.3801 31.0301C11.1712 31.0353 11.0023 30.9133 11 30.7651C11 30.6129 11.164 30.4891 11.3729 30.4855C11.5805 30.4812 11.7506 30.6023 11.7506 30.7521" fill="#6DB1BF"/>
<path d="M13.0812 30.5151C13.1061 30.6622 12.9617 30.8132 12.7555 30.8531C12.5527 30.8921 12.365 30.8014 12.3392 30.6555C12.3141 30.5048 12.461 30.3538 12.6635 30.3148C12.87 30.2772 13.0549 30.3656 13.0812 30.5151" fill="#6DB1BF"/>
</svg>
