<svg width="40" height="40" viewBox="0 0 32 32" fill="none" xmlns="http://www.w3.org/2000/svg">
    <path d="M0 16C0 7.16344 7.16344 0 16 0C24.8366 0 32 7.16344 32 16C32 24.8366 24.8366 32 16 32C7.16344 32 0 24.8366 0 16Z" fill="#223843"/>
    <path d="M20.375 23.375C20.375 20.9588 18.4162 19 16 19C13.5838 19 11.625 20.9588 11.625 23.375M20.375 23.375H21.0777C22.0559 23.375 22.545 23.375 22.919 23.1844C23.2483 23.0167 23.5167 22.7483 23.6844 22.419C23.875 22.045 23.875 21.5559 23.875 20.5777V10.4223C23.875 9.44412 23.875 8.9543 23.6844 8.58032C23.5167 8.25104 23.2483 7.98352 22.919 7.81574C22.5446 7.625 22.0553 7.625 21.0752 7.625H10.9252C9.94508 7.625 9.45467 7.625 9.08032 7.81574C8.75104 7.98352 8.48352 8.25104 8.31574 8.58032C8.125 8.95467 8.125 9.44508 8.125 10.4252V20.5752C8.125 21.5553 8.125 22.0446 8.31574 22.419C8.48352 22.7483 8.75104 23.0167 9.08032 23.1844C9.4543 23.375 9.94412 23.375 10.9223 23.375H11.625M20.375 23.375H11.625M16 16.375C14.5503 16.375 13.375 15.1997 13.375 13.75C13.375 12.3003 14.5503 11.125 16 11.125C17.4497 11.125 18.625 12.3003 18.625 13.75C18.625 15.1997 17.4497 16.375 16 16.375Z" stroke="#F5F7FA" stroke-width="2" stroke-linecap="round" stroke-linejoin="round"/>
</svg>