<svg width="40" height="40" viewBox="0 0 32 32" fill="none" xmlns="http://www.w3.org/2000/svg">
    <path d="M0 16C0 7.16344 7.16344 0 16 0C24.8366 0 32 7.16344 32 16C32 24.8366 24.8366 32 16 32C7.16344 32 0 24.8366 0 16Z" fill="#223843"/>
    <path d="M9.33333 10.25L14.423 14.2857L14.4247 14.2872C14.9899 14.7224 15.2726 14.9401 15.5823 15.0242C15.856 15.0985 16.1438 15.0985 16.4175 15.0242C16.7274 14.94 17.011 14.7217 17.5771 14.2857C17.5771 14.2857 20.8417 11.6552 22.6667 10.25M8.5 18.8252V12.1752C8.5 11.1951 8.5 10.7047 8.68166 10.3303C8.84144 10.001 9.09623 9.73352 9.40983 9.56574C9.76635 9.375 10.2334 9.375 11.1668 9.375H20.8335C21.7669 9.375 22.233 9.375 22.5895 9.56574C22.9031 9.73352 23.1587 10.001 23.3185 10.3303C23.5 10.7043 23.5 11.1941 23.5 12.1723V18.8281C23.5 19.8063 23.5 20.2954 23.3185 20.6694C23.1587 20.9987 22.9031 21.2667 22.5895 21.4344C22.2333 21.625 21.7675 21.625 20.8359 21.625H11.1641C10.2325 21.625 9.766 21.625 9.40983 21.4344C9.09623 21.2667 8.84144 20.9987 8.68166 20.6694C8.5 20.2951 8.5 19.8053 8.5 18.8252Z" stroke="#F5F7FA" stroke-width="2" stroke-linecap="round" stroke-linejoin="round"/>
</svg>
