<svg width="161" height="161" viewBox="0 0 161 161" fill="none" xmlns="http://www.w3.org/2000/svg">
<rect x="0.163086" y="0.887207" width="160" height="160" rx="30" fill="#F5F7FA"/>
<g clip-path="url(#paint0_diamond_114_210_clip_path)" data-figma-skip-parse="true"><g transform="matrix(0.362957 0.00109743 -0.00332065 0.203975 -63.8792 -5.34007)"><rect x="0" y="0" width="575.733" height="279.983" fill="url(#paint0_diamond_114_210)" opacity="1" shape-rendering="crispEdges"/><rect x="0" y="0" width="575.733" height="279.983" transform="scale(1 -1)" fill="url(#paint0_diamond_114_210)" opacity="1" shape-rendering="crispEdges"/><rect x="0" y="0" width="575.733" height="279.983" transform="scale(-1 1)" fill="url(#paint0_diamond_114_210)" opacity="1" shape-rendering="crispEdges"/><rect x="0" y="0" width="575.733" height="279.983" transform="scale(-1)" fill="url(#paint0_diamond_114_210)" opacity="1" shape-rendering="crispEdges"/></g></g><path d="M113.646 51.5142C107.708 51.5142 101.44 51.0692 94.8428 50.1794C88.4653 49.1784 81.8678 48.0661 75.0505 46.8426C70.4323 45.9528 66.4738 45.2855 63.1751 44.8405C59.8764 44.3956 56.7975 44.1732 53.9387 44.1732C50.6399 44.1732 47.3412 44.5069 44.0425 45.1742C40.7438 45.7304 36.8953 46.6202 32.497 47.8437C30.9576 48.2886 29.1982 48.7335 27.219 49.1784C25.4597 49.6233 23.8103 49.8458 22.2709 49.8458C20.2917 49.8458 18.8622 49.3452 17.9826 48.3442C17.1029 47.2319 16.6631 45.786 16.6631 44.0063C16.6631 41.6706 17.3228 39.0011 18.6423 35.998C20.4016 31.6602 23.4804 28.379 27.8787 26.1544C32.497 23.9299 38.7645 22.8176 46.6815 22.8176C52.6192 22.8176 58.7768 23.3181 65.1543 24.3192C71.7518 25.209 78.4592 26.2657 85.2765 27.4892C89.8947 28.2677 93.8532 28.9351 97.1519 29.4912C100.451 29.9361 103.529 30.1586 106.388 30.1586C109.687 30.1586 112.986 29.8249 116.285 29.1576C119.583 28.4902 123.432 27.6004 127.83 26.4881C129.589 26.0432 131.349 25.5983 133.108 25.1534C134.867 24.7085 136.517 24.486 138.056 24.486C140.035 24.5973 141.465 25.209 142.344 26.3213C143.224 27.3223 143.664 28.657 143.664 30.3254C143.664 32.6612 143.004 35.3306 141.685 38.3338C139.925 42.6716 136.737 45.9528 132.118 48.1774C127.72 50.4019 121.562 51.5142 113.646 51.5142Z" data-figma-gradient-fill="{&#34;type&#34;:&#34;GRADIENT_DIAMOND&#34;,&#34;stops&#34;:[{&#34;color&#34;:{&#34;r&#34;:0.42745098471641541,&#34;g&#34;:0.69411766529083252,&#34;b&#34;:0.74901962280273438,&#34;a&#34;:1.0},&#34;position&#34;:0.0},{&#34;color&#34;:{&#34;r&#34;:0.076119400560855865,&#34;g&#34;:0.12537312507629395,&#34;b&#34;:0.15000000596046448,&#34;a&#34;:1.0},&#34;position&#34;:1.0}],&#34;stopsVar&#34;:[{&#34;color&#34;:{&#34;r&#34;:0.42745098471641541,&#34;g&#34;:0.69411766529083252,&#34;b&#34;:0.74901962280273438,&#34;a&#34;:1.0},&#34;position&#34;:0.0},{&#34;color&#34;:{&#34;r&#34;:0.076119400560855865,&#34;g&#34;:0.12537312507629395,&#34;b&#34;:0.15000000596046448,&#34;a&#34;:1.0},&#34;position&#34;:1.0}],&#34;transform&#34;:{&#34;m00&#34;:725.91406250,&#34;m01&#34;:-6.6413054466247559,&#34;m02&#34;:-423.51556396484375,&#34;m10&#34;:2.1948621273040771,&#34;m11&#34;:407.94973754882812,&#34;m12&#34;:-210.41236877441406},&#34;opacity&#34;:1.0,&#34;blendMode&#34;:&#34;NORMAL&#34;,&#34;visible&#34;:true}"/>
<g clip-path="url(#paint1_diamond_114_210_clip_path)" data-figma-skip-parse="true"><g transform="matrix(0.362957 0.00109743 -0.00332065 0.203975 -65.8792 39.8755)"><rect x="0" y="0" width="575.733" height="279.983" fill="url(#paint1_diamond_114_210)" opacity="1" shape-rendering="crispEdges"/><rect x="0" y="0" width="575.733" height="279.983" transform="scale(1 -1)" fill="url(#paint1_diamond_114_210)" opacity="1" shape-rendering="crispEdges"/><rect x="0" y="0" width="575.733" height="279.983" transform="scale(-1 1)" fill="url(#paint1_diamond_114_210)" opacity="1" shape-rendering="crispEdges"/><rect x="0" y="0" width="575.733" height="279.983" transform="scale(-1)" fill="url(#paint1_diamond_114_210)" opacity="1" shape-rendering="crispEdges"/></g></g><path d="M111.646 96.7297C105.708 96.7297 99.4403 96.2848 92.8428 95.395C86.4653 94.394 79.8678 93.2817 73.0505 92.0582C68.4323 91.1684 64.4738 90.501 61.1751 90.0561C57.8764 89.6112 54.7975 89.3888 51.9387 89.3888C48.6399 89.3888 45.3412 89.7224 42.0425 90.3898C38.7438 90.9459 34.8953 91.8358 30.497 93.0592C28.9576 93.5042 27.1982 93.9491 25.219 94.394C23.4597 94.8389 21.8103 95.0613 20.2709 95.0613C18.2917 95.0613 16.8622 94.5608 15.9826 93.5598C15.1029 92.4475 14.6631 91.0016 14.6631 89.2219C14.6631 86.8862 15.3228 84.2167 16.6423 81.2136C18.4016 76.8757 21.4804 73.5945 25.8787 71.37C30.497 69.1455 36.7645 68.0332 44.6815 68.0332C50.6192 68.0332 56.7768 68.5337 63.1543 69.5348C69.7518 70.4246 76.4592 71.4812 83.2765 72.7047C87.8947 73.4833 91.8532 74.1507 95.1519 74.7068C98.4507 75.1517 101.529 75.3742 104.388 75.3742C107.687 75.3742 110.986 75.0405 114.285 74.3731C117.583 73.7058 121.432 72.816 125.83 71.7037C127.589 71.2588 129.349 70.8139 131.108 70.369C132.867 69.9241 134.517 69.7016 136.056 69.7016C138.035 69.8128 139.465 70.4246 140.344 71.5368C141.224 72.5379 141.664 73.8726 141.664 75.541C141.664 77.8768 141.004 80.5462 139.685 83.5493C137.925 87.8872 134.737 91.1684 130.118 93.3929C125.72 95.6175 119.562 96.7297 111.646 96.7297Z" data-figma-gradient-fill="{&#34;type&#34;:&#34;GRADIENT_DIAMOND&#34;,&#34;stops&#34;:[{&#34;color&#34;:{&#34;r&#34;:0.42745098471641541,&#34;g&#34;:0.69411766529083252,&#34;b&#34;:0.74901962280273438,&#34;a&#34;:1.0},&#34;position&#34;:0.0},{&#34;color&#34;:{&#34;r&#34;:0.076119400560855865,&#34;g&#34;:0.12537312507629395,&#34;b&#34;:0.15000000596046448,&#34;a&#34;:1.0},&#34;position&#34;:1.0}],&#34;stopsVar&#34;:[{&#34;color&#34;:{&#34;r&#34;:0.42745098471641541,&#34;g&#34;:0.69411766529083252,&#34;b&#34;:0.74901962280273438,&#34;a&#34;:1.0},&#34;position&#34;:0.0},{&#34;color&#34;:{&#34;r&#34;:0.076119400560855865,&#34;g&#34;:0.12537312507629395,&#34;b&#34;:0.15000000596046448,&#34;a&#34;:1.0},&#34;position&#34;:1.0}],&#34;transform&#34;:{&#34;m00&#34;:725.91406250,&#34;m01&#34;:-6.6413054466247559,&#34;m02&#34;:-425.51556396484375,&#34;m10&#34;:2.1948621273040771,&#34;m11&#34;:407.94973754882812,&#34;m12&#34;:-165.19679260253906},&#34;opacity&#34;:1.0,&#34;blendMode&#34;:&#34;NORMAL&#34;,&#34;visible&#34;:true}"/>
<g clip-path="url(#paint2_diamond_114_210_clip_path)" data-figma-skip-parse="true"><g transform="matrix(0.362957 0.00109743 -0.00332065 0.203975 -65.8792 85.0913)"><rect x="0" y="0" width="575.733" height="279.983" fill="url(#paint2_diamond_114_210)" opacity="1" shape-rendering="crispEdges"/><rect x="0" y="0" width="575.733" height="279.983" transform="scale(1 -1)" fill="url(#paint2_diamond_114_210)" opacity="1" shape-rendering="crispEdges"/><rect x="0" y="0" width="575.733" height="279.983" transform="scale(-1 1)" fill="url(#paint2_diamond_114_210)" opacity="1" shape-rendering="crispEdges"/><rect x="0" y="0" width="575.733" height="279.983" transform="scale(-1)" fill="url(#paint2_diamond_114_210)" opacity="1" shape-rendering="crispEdges"/></g></g><path d="M111.646 141.946C105.708 141.946 99.4403 141.501 92.8428 140.611C86.4653 139.61 79.8678 138.498 73.0505 137.274C68.4323 136.384 64.4738 135.717 61.1751 135.272C57.8764 134.827 54.7975 134.605 51.9387 134.605C48.6399 134.605 45.3412 134.938 42.0425 135.606C38.7438 136.162 34.8953 137.052 30.497 138.275C28.9576 138.72 27.1982 139.165 25.219 139.61C23.4597 140.055 21.8103 140.277 20.2709 140.277C18.2917 140.277 16.8622 139.777 15.9826 138.776C15.1029 137.663 14.6631 136.217 14.6631 134.438C14.6631 132.102 15.3228 129.433 16.6423 126.429C18.4016 122.092 21.4804 118.81 25.8787 116.586C30.497 114.361 36.7645 113.249 44.6815 113.249C50.6192 113.249 56.7768 113.75 63.1543 114.751C69.7518 115.64 76.4592 116.697 83.2765 117.921C87.8947 118.699 91.8532 119.367 95.1519 119.923C98.4507 120.368 101.529 120.59 104.388 120.59C107.687 120.59 110.986 120.256 114.285 119.589C117.583 118.922 121.432 118.032 125.83 116.92C127.589 116.475 129.349 116.03 131.108 115.585C132.867 115.14 134.517 114.917 136.056 114.917C138.035 115.029 139.465 115.64 140.344 116.753C141.224 117.754 141.664 119.088 141.664 120.757C141.664 123.093 141.004 125.762 139.685 128.765C137.925 133.103 134.737 136.384 130.118 138.609C125.72 140.833 119.562 141.946 111.646 141.946Z" data-figma-gradient-fill="{&#34;type&#34;:&#34;GRADIENT_DIAMOND&#34;,&#34;stops&#34;:[{&#34;color&#34;:{&#34;r&#34;:0.42745098471641541,&#34;g&#34;:0.69411766529083252,&#34;b&#34;:0.74901962280273438,&#34;a&#34;:1.0},&#34;position&#34;:0.0},{&#34;color&#34;:{&#34;r&#34;:0.076119400560855865,&#34;g&#34;:0.12537312507629395,&#34;b&#34;:0.15000000596046448,&#34;a&#34;:1.0},&#34;position&#34;:1.0}],&#34;stopsVar&#34;:[{&#34;color&#34;:{&#34;r&#34;:0.42745098471641541,&#34;g&#34;:0.69411766529083252,&#34;b&#34;:0.74901962280273438,&#34;a&#34;:1.0},&#34;position&#34;:0.0},{&#34;color&#34;:{&#34;r&#34;:0.076119400560855865,&#34;g&#34;:0.12537312507629395,&#34;b&#34;:0.15000000596046448,&#34;a&#34;:1.0},&#34;position&#34;:1.0}],&#34;transform&#34;:{&#34;m00&#34;:725.91406250,&#34;m01&#34;:-6.6413054466247559,&#34;m02&#34;:-425.51556396484375,&#34;m10&#34;:2.1948621273040771,&#34;m11&#34;:407.94973754882812,&#34;m12&#34;:-119.98097229003906},&#34;opacity&#34;:1.0,&#34;blendMode&#34;:&#34;NORMAL&#34;,&#34;visible&#34;:true}"/>
<defs>
<clipPath id="paint0_diamond_114_210_clip_path"><path d="M113.646 51.5142C107.708 51.5142 101.44 51.0692 94.8428 50.1794C88.4653 49.1784 81.8678 48.0661 75.0505 46.8426C70.4323 45.9528 66.4738 45.2855 63.1751 44.8405C59.8764 44.3956 56.7975 44.1732 53.9387 44.1732C50.6399 44.1732 47.3412 44.5069 44.0425 45.1742C40.7438 45.7304 36.8953 46.6202 32.497 47.8437C30.9576 48.2886 29.1982 48.7335 27.219 49.1784C25.4597 49.6233 23.8103 49.8458 22.2709 49.8458C20.2917 49.8458 18.8622 49.3452 17.9826 48.3442C17.1029 47.2319 16.6631 45.786 16.6631 44.0063C16.6631 41.6706 17.3228 39.0011 18.6423 35.998C20.4016 31.6602 23.4804 28.379 27.8787 26.1544C32.497 23.9299 38.7645 22.8176 46.6815 22.8176C52.6192 22.8176 58.7768 23.3181 65.1543 24.3192C71.7518 25.209 78.4592 26.2657 85.2765 27.4892C89.8947 28.2677 93.8532 28.9351 97.1519 29.4912C100.451 29.9361 103.529 30.1586 106.388 30.1586C109.687 30.1586 112.986 29.8249 116.285 29.1576C119.583 28.4902 123.432 27.6004 127.83 26.4881C129.589 26.0432 131.349 25.5983 133.108 25.1534C134.867 24.7085 136.517 24.486 138.056 24.486C140.035 24.5973 141.465 25.209 142.344 26.3213C143.224 27.3223 143.664 28.657 143.664 30.3254C143.664 32.6612 143.004 35.3306 141.685 38.3338C139.925 42.6716 136.737 45.9528 132.118 48.1774C127.72 50.4019 121.562 51.5142 113.646 51.5142Z"/></clipPath><clipPath id="paint1_diamond_114_210_clip_path"><path d="M111.646 96.7297C105.708 96.7297 99.4403 96.2848 92.8428 95.395C86.4653 94.394 79.8678 93.2817 73.0505 92.0582C68.4323 91.1684 64.4738 90.501 61.1751 90.0561C57.8764 89.6112 54.7975 89.3888 51.9387 89.3888C48.6399 89.3888 45.3412 89.7224 42.0425 90.3898C38.7438 90.9459 34.8953 91.8358 30.497 93.0592C28.9576 93.5042 27.1982 93.9491 25.219 94.394C23.4597 94.8389 21.8103 95.0613 20.2709 95.0613C18.2917 95.0613 16.8622 94.5608 15.9826 93.5598C15.1029 92.4475 14.6631 91.0016 14.6631 89.2219C14.6631 86.8862 15.3228 84.2167 16.6423 81.2136C18.4016 76.8757 21.4804 73.5945 25.8787 71.37C30.497 69.1455 36.7645 68.0332 44.6815 68.0332C50.6192 68.0332 56.7768 68.5337 63.1543 69.5348C69.7518 70.4246 76.4592 71.4812 83.2765 72.7047C87.8947 73.4833 91.8532 74.1507 95.1519 74.7068C98.4507 75.1517 101.529 75.3742 104.388 75.3742C107.687 75.3742 110.986 75.0405 114.285 74.3731C117.583 73.7058 121.432 72.816 125.83 71.7037C127.589 71.2588 129.349 70.8139 131.108 70.369C132.867 69.9241 134.517 69.7016 136.056 69.7016C138.035 69.8128 139.465 70.4246 140.344 71.5368C141.224 72.5379 141.664 73.8726 141.664 75.541C141.664 77.8768 141.004 80.5462 139.685 83.5493C137.925 87.8872 134.737 91.1684 130.118 93.3929C125.72 95.6175 119.562 96.7297 111.646 96.7297Z"/></clipPath><clipPath id="paint2_diamond_114_210_clip_path"><path d="M111.646 141.946C105.708 141.946 99.4403 141.501 92.8428 140.611C86.4653 139.61 79.8678 138.498 73.0505 137.274C68.4323 136.384 64.4738 135.717 61.1751 135.272C57.8764 134.827 54.7975 134.605 51.9387 134.605C48.6399 134.605 45.3412 134.938 42.0425 135.606C38.7438 136.162 34.8953 137.052 30.497 138.275C28.9576 138.72 27.1982 139.165 25.219 139.61C23.4597 140.055 21.8103 140.277 20.2709 140.277C18.2917 140.277 16.8622 139.777 15.9826 138.776C15.1029 137.663 14.6631 136.217 14.6631 134.438C14.6631 132.102 15.3228 129.433 16.6423 126.429C18.4016 122.092 21.4804 118.81 25.8787 116.586C30.497 114.361 36.7645 113.249 44.6815 113.249C50.6192 113.249 56.7768 113.75 63.1543 114.751C69.7518 115.64 76.4592 116.697 83.2765 117.921C87.8947 118.699 91.8532 119.367 95.1519 119.923C98.4507 120.368 101.529 120.59 104.388 120.59C107.687 120.59 110.986 120.256 114.285 119.589C117.583 118.922 121.432 118.032 125.83 116.92C127.589 116.475 129.349 116.03 131.108 115.585C132.867 115.14 134.517 114.917 136.056 114.917C138.035 115.029 139.465 115.64 140.344 116.753C141.224 117.754 141.664 119.088 141.664 120.757C141.664 123.093 141.004 125.762 139.685 128.765C137.925 133.103 134.737 136.384 130.118 138.609C125.72 140.833 119.562 141.946 111.646 141.946Z"/></clipPath><linearGradient id="paint0_diamond_114_210" x1="0" y1="0" x2="500" y2="500" gradientUnits="userSpaceOnUse">
<stop stop-color="#6DB1BF"/>
<stop offset="1" stop-color="#132026"/>
</linearGradient>
<linearGradient id="paint1_diamond_114_210" x1="0" y1="0" x2="500" y2="500" gradientUnits="userSpaceOnUse">
<stop stop-color="#6DB1BF"/>
<stop offset="1" stop-color="#132026"/>
</linearGradient>
<linearGradient id="paint2_diamond_114_210" x1="0" y1="0" x2="500" y2="500" gradientUnits="userSpaceOnUse">
<stop stop-color="#6DB1BF"/>
<stop offset="1" stop-color="#132026"/>
</linearGradient>
</defs>
</svg>
