<svg width="43" height="44" viewBox="0 0 43 44" fill="none" xmlns="http://www.w3.org/2000/svg">
<path d="M0 21.7856C0 9.91152 9.62588 0.285645 21.5 0.285645C33.3741 0.285645 43 9.91152 43 21.7856C43 33.6598 33.3741 43.2856 21.5 43.2856C9.62588 43.2856 0 33.6598 0 21.7856Z" fill="#6DB1BF"/>
<path d="M12.5 14.5357L19.3711 20.1089L19.3734 20.1109C20.1363 20.7119 20.518 21.0125 20.9361 21.1287C21.3056 21.2313 21.6941 21.2313 22.0636 21.1287C22.482 21.0124 22.8649 20.7109 23.6292 20.1089C23.6292 20.1089 28.0363 16.4762 30.5 14.5357M11.375 26.3776V17.1943C11.375 15.8408 11.375 15.1636 11.6202 14.6466C11.836 14.1919 12.1799 13.8225 12.6033 13.5908C13.0846 13.3274 13.7151 13.3274 14.9752 13.3274H28.0252C29.2853 13.3274 29.9145 13.3274 30.3958 13.5908C30.8192 13.8225 31.1643 14.1919 31.38 14.6466C31.625 15.1631 31.625 15.8395 31.625 17.1903V26.3817C31.625 27.7325 31.625 28.408 31.38 28.9244C31.1643 29.3791 30.8192 29.7492 30.3958 29.9809C29.915 30.2441 29.2861 30.2441 28.0285 30.2441H14.9715C13.7139 30.2441 13.0841 30.2441 12.6033 29.9809C12.1799 29.7492 11.836 29.3791 11.6202 28.9244C11.375 28.4075 11.375 27.7311 11.375 26.3776Z" stroke="#223843" stroke-width="2" stroke-linecap="round" stroke-linejoin="round"/>
</svg>
