<svg width="43" height="44" viewBox="0 0 43 44" fill="none" xmlns="http://www.w3.org/2000/svg">
<path d="M21.5 0.285645C33.3741 0.285645 43 9.91152 43 21.7856C43 33.6598 33.3741 43.2856 21.5 43.2856C9.62588 43.2856 2.5772e-07 33.6598 0 21.7856C0 9.91152 9.62588 0.285645 21.5 0.285645ZM27.1553 17.7495C24.5687 17.7496 23.4104 19.1698 22.7637 20.1665V18.0933H17.8906C17.9548 19.467 17.8906 32.7329 17.8906 32.7329H22.7637V24.5571C22.7637 24.1197 22.795 23.6829 22.9238 23.3696C23.2759 22.4956 24.078 21.5905 25.4238 21.5903C27.1876 21.5903 27.8935 22.9328 27.8936 24.8999V32.7319H32.7656V24.3384C32.7656 19.8419 30.3615 17.7495 27.1553 17.7495ZM10.3213 32.7319H15.1934V18.0933H10.3213V32.7319ZM12.79 11.0356C11.1234 11.0356 10.0334 12.1287 10.0332 13.564C10.0332 14.9696 11.0908 16.0942 12.7266 16.0942H12.7578C14.4567 16.0942 15.5146 14.9696 15.5146 13.564C15.4829 12.1288 14.4566 11.0357 12.79 11.0356Z" fill="#6DB1BF"/>
</svg>
