<svg width="36" height="37" viewBox="0 0 36 37" fill="none" xmlns="http://www.w3.org/2000/svg">
<path d="M0 18.6785C0 8.89537 7.93077 0.9646 17.7139 0.9646C27.497 0.9646 35.4277 8.89537 35.4277 18.6785C35.4277 28.4616 27.497 36.3923 17.7139 36.3923C7.93077 36.3923 0 28.4616 0 18.6785Z" fill="#6DB1BF"/>
<path d="M18.0004 7.82642C19.1826 7.82642 26.9666 12.1025 27.5557 13.0764C28.1481 14.0503 28.1481 22.6025 27.5557 23.5764C26.9632 24.5503 19.1819 28.8264 18.0004 28.8264C16.8183 28.8264 9.03422 24.5503 8.44176 23.5764C7.85275 22.6025 7.85275 14.0503 8.44176 13.0764C9.03422 12.1025 16.819 7.82642 18.0004 7.82642ZM20.113 13.7773C20.0816 13.7769 20.0503 13.7824 20.0212 13.7935C19.992 13.8047 19.9654 13.8212 19.943 13.8422C19.9206 13.8632 19.9028 13.8883 19.8907 13.9159C19.8785 13.9435 19.8723 13.9731 19.8723 14.003V17.3939H16.1293V13.8698H16.7721C16.803 13.8697 16.8337 13.8638 16.8622 13.8524C16.8908 13.841 16.9167 13.8243 16.9384 13.8033C16.9602 13.7823 16.9773 13.7574 16.9889 13.7301C17.0005 13.7028 17.0062 13.6735 17.0059 13.6441C17.0056 13.6059 16.9953 13.5683 16.9759 13.5349C16.9565 13.5014 16.9286 13.4731 16.8948 13.4524L15.4471 12.1334C15.4221 12.1037 15.3904 12.0797 15.3544 12.0631C15.3183 12.0465 15.2789 12.0378 15.2388 12.0376C15.2018 12.0381 15.1653 12.0466 15.1323 12.0627C15.0993 12.0787 15.0706 12.1018 15.0485 12.1301L13.5035 13.4531C13.4592 13.4788 13.425 13.5176 13.4061 13.5636C13.3872 13.6096 13.3848 13.6602 13.3991 13.7076C13.4135 13.7551 13.4438 13.7967 13.4855 13.8262C13.5272 13.8556 13.5779 13.8712 13.6297 13.8705H14.2767L14.2836 22.6511C14.2836 22.7778 14.3843 22.8769 14.5174 22.8769H15.8899C15.9211 22.8769 15.952 22.8712 15.9808 22.8598C16.0097 22.8485 16.0358 22.8319 16.0579 22.8109C16.0799 22.7899 16.0974 22.765 16.1093 22.7376C16.1212 22.7102 16.1273 22.6808 16.1272 22.6511V19.1474H19.8737V22.7804H19.2309C19.179 22.7797 19.1283 22.7953 19.0866 22.8247C19.045 22.8541 19.0146 22.8958 19.0003 22.9432C18.9859 22.9907 18.9884 23.0413 19.0072 23.0873C19.0261 23.1333 19.0603 23.1721 19.1047 23.1978L20.5558 24.5208C20.5951 24.5752 20.6855 24.6166 20.7641 24.6166C20.8427 24.6166 20.9076 24.5752 20.9545 24.5208L22.4994 23.1978C22.5336 23.1776 22.5619 23.1494 22.5813 23.1158C22.6008 23.0822 22.6108 23.0445 22.6104 23.0061C22.6099 22.9464 22.5847 22.8893 22.5404 22.8471C22.496 22.8048 22.4359 22.7809 22.3732 22.7804H21.7262L21.7193 14.003C21.7202 13.9733 21.7147 13.9437 21.7034 13.916C21.692 13.8883 21.6749 13.863 21.6531 13.8417C21.6313 13.8203 21.6053 13.8034 21.5765 13.7917C21.5477 13.7801 21.5168 13.7741 21.4855 13.774H20.113V13.7773Z" fill="#223843"/>
</svg>
