<svg width="47" height="36" viewBox="0 0 47 36" fill="none" xmlns="http://www.w3.org/2000/svg">
<path d="M1 10.1111L3.21667 5.05555C4.06346 3.12428 6.80321 3.12428 7.65 5.05556V5.05556C8.49679 6.98683 11.2365 6.98683 12.0833 5.05556V5.05556C12.9301 3.12428 15.6699 3.12428 16.5167 5.05556V5.05556C17.3635 6.98683 20.1032 6.98683 20.95 5.05556V5.05556C21.7968 3.12428 24.5365 3.12428 25.3833 5.05556V5.05556C26.2301 6.98683 28.9699 6.98683 29.8167 5.05556V5.05556C30.6635 3.12428 33.4032 3.12428 34.25 5.05556V5.05556C35.0968 6.98683 37.8365 6.98683 38.6833 5.05556V5.05556C39.5301 3.12428 42.2699 3.12428 43.1167 5.05556L45.3333 10.1111" stroke="#6DB1BF" stroke-width="2"/>
<path d="M1 22.5556L3.21667 17.5C4.06346 15.5687 6.80321 15.5687 7.65 17.5V17.5C8.49679 19.4313 11.2365 19.4313 12.0833 17.5V17.5C12.9301 15.5687 15.6699 15.5687 16.5167 17.5V17.5C17.3635 19.4313 20.1032 19.4313 20.95 17.5V17.5C21.7968 15.5687 24.5365 15.5687 25.3833 17.5V17.5C26.2301 19.4313 28.9699 19.4313 29.8167 17.5V17.5C30.6635 15.5687 33.4032 15.5687 34.25 17.5V17.5C35.0968 19.4313 37.8365 19.4313 38.6833 17.5V17.5C39.5301 15.5687 42.2699 15.5687 43.1167 17.5L45.3333 22.5556" stroke="#6DB1BF" stroke-width="2"/>
<path d="M1 35L3.21667 29.9445C4.06346 28.0132 6.80321 28.0132 7.65 29.9445V29.9445C8.49679 31.8757 11.2365 31.8757 12.0833 29.9445V29.9445C12.9301 28.0132 15.6699 28.0132 16.5167 29.9445V29.9445C17.3635 31.8757 20.1032 31.8757 20.95 29.9445V29.9445C21.7968 28.0132 24.5365 28.0132 25.3833 29.9445V29.9445C26.2301 31.8757 28.9699 31.8757 29.8167 29.9445V29.9445C30.6635 28.0132 33.4032 28.0132 34.25 29.9445V29.9445C35.0968 31.8757 37.8365 31.8757 38.6833 29.9445V29.9445C39.5301 28.0132 42.2699 28.0132 43.1167 29.9445L45.3333 35" stroke="#6DB1BF" stroke-width="2"/>
</svg>
